<svg xmlns="http://www.w3.org/2000/svg" viewBox="0 0 230 150"><defs/><path fill="#EA4C89" d="M0 0h230v150H0z"/><path fill="#FFF" d="M140.912 119.772c-.164-.119-.294-.136-.401.09-1.845 3.988-4.95 1.997-4.64 2.173.69-.316 2.501-1.765 2.229-3.773-.164-1.228-1.217-1.771-2.337-1.572-1.951.339-2.665 2.443-2.303 4.305.063.323.176.583.295.843-2.201 1.794-3.078-1.601-3.181-2.008-.006-.023 1.704-1.443 2.179-4.832.498-3.547-.634-4.197-1.794-4.176-2.144.04-2.721 4.516-1.946 8.244-.062.017-.368.187-.854.203-.351-1.103-1.85-2.07-2.239-1.697-.979.934.237 2.756 1.098 2.896-.516 3.175-3.74 2.388-3.141-1.589 1.047-1.946 1.851-4.85 1.703-6.598-.051-.616-.509-1.448-1.545-1.408-1.991.079-2.206 4.555-1.974 7.734-.012-.079-.125.384-.939.615-.193-1.068-1.918-2.149-2.326-1.629-.758.967.561 2.693 1.184 2.813-.515 3.174-3.74 2.388-3.14-1.591 1.052-1.945 1.849-4.843 1.707-6.591-.05-.616-.509-1.448-1.544-1.408-1.992.079-2.206 4.554-1.974 7.733-.012-.079-.125.402-.974.629-.028-1.392-1.759-2.026-2.178-1.585-.741.792.169 2.416 1.013 2.813-.515 3.174-3.74 2.388-3.14-1.591 1.047-1.945 1.85-4.848 1.703-6.596-.045-.611-.503-1.443-1.539-1.403-1.991.079-2.15 4.78-1.918 7.96-.656 2.812-2.857 6.319-2.568-.713.028-.492.056-.679-.187-.865-.187-.142-.605-.073-.832-.068-.277.012-.351.176-.407.419-.142.633-.169 1.25-.192 2.093-.011.396-.045.578-.198 1.115s-1.012 1.516-1.488 1.352c-.656-.226-.441-2.075-.317-3.35.102-1.007-.226-1.453-1.063-1.617-.492-.102-.792-.085-1.301-.249-.487-.152-.594-1.069-1.624-.764-.565.169-.203 1.363-.339 2.251-.667 4.362-2.054 4.481-2.699 2.365 2.897-7.105.832-9.906-.373-9.906-1.256 0-2.693.865-2.088 6.41-.294-.085-.385-.13-.713-.13-1.827-.007-3.078 1.477-3.078 3.304s1.25 3.31 3.083 3.31c1.081 0 1.839-.492 2.416-1.25.373.537.832 1.261 1.669 1.228 2.489-.096 3.213-5.205 3.298-5.493.266.039.521.118.764.158.407.062.441.226.43.634-.107 3.474.532 4.69 1.986 4.69.809 0 1.533-.798 2.031-1.364.374.77.962 1.341 1.759 1.364 1.924.044 2.665-3.021 2.597-2.62-.051.317.622 2.597 2.608 2.607 2.456.013 2.914-2.687 2.965-3.14.011-.079.005-.091 0 0v.028c.781-.146 1.182-.56 1.182-.56s.628 3.717 2.943 3.677c2.404-.045 2.862-2.483 2.919-2.958.011-.103.006-.113 0 0v.011c.928-.339 1.171-.673 1.171-.673s.498 3.644 2.941 3.678c2.178.028 2.987-2.207 2.993-3.141.368.006 1.047-.221 1.03-.231 0 0 .797 3.185 3.026 3.349 1.047.079 1.833-.588 2.28-.894 1.052.854 4.554 1.94 6.767-1.811.317-.531-.357-1.17-.475-1.25zm-49.391 2.722c-1.069 0-1.754-.99-1.754-2.055 0-1.063.627-2.054 1.697-2.054.48 0 .747.051 1.125.379.068.267.26.883.356 1.166.125.373.277.696.424 1.041-.219.894-.92 1.523-1.848 1.523zm2.603-3.701c-.045-.073-.034-.028-.084-.096-.192-.531-.572-1.721-.617-3.072-.051-1.527.204-3.321.957-3.321.508 0 1.051 3.632-.256 6.489zm15.054-1.589c-.118-.906-.124-4.951.843-4.838.538.215-.339 4.029-.843 4.838zm7.09 0c-.118-.906-.125-4.951.844-4.838.536.215-.341 4.029-.844 4.838zm7.032.056c-.119-.905-.124-4.95.843-4.837.538.209-.339 4.028-.843 4.837zm7.763-5.137c.888-.09.849 3.785-.928 6.229-.233-.882-.583-5.923.928-6.229zm3.733 8.345c-.282-1.442.452-2.387 1.211-2.489.267-.04.65.131.725.453.125.604-.018 1.505-1.72 2.643.006.004-.154-.29-.216-.607zm-30.092-4.447a1.098 1.098 0 10-.003-2.197 1.098 1.098 0 00.003 2.197z"/><circle cx="115" cy="63.75" r="38.144" fill="#EA4C89"/><path fill="#C32361" d="M115 24.017c-21.936 0-39.733 17.798-39.733 39.733S93.065 103.483 115 103.483c21.892 0 39.733-17.799 39.733-39.733 0-21.935-17.841-39.733-39.733-39.733zm26.244 18.315a33.776 33.776 0 017.67 21.117c-1.12-.216-12.324-2.5-23.614-1.078-.26-.561-.476-1.164-.732-1.767a101.172 101.172 0 00-2.241-4.913c12.496-5.085 18.185-12.411 18.917-13.359zM115 29.878c8.619 0 16.505 3.231 22.494 8.532-.603.862-5.73 7.714-17.798 12.239-5.559-10.214-11.721-18.574-12.669-19.867 2.543-.603 5.215-.904 7.973-.904zm-14.437 3.188c.904 1.207 6.938 9.61 12.583 19.608-15.858 4.223-29.864 4.137-31.373 4.137 2.199-10.514 9.309-19.263 18.79-23.745zM81.041 63.793v-1.035c1.466.043 17.928.259 34.864-4.826.99 1.896 1.895 3.835 2.758 5.774-.432.129-.905.259-1.337.388-17.496 5.646-26.805 21.074-27.58 22.367-5.387-5.99-8.705-13.963-8.705-22.668zM115 97.709a33.7 33.7 0 01-20.814-7.153c.603-1.251 7.498-14.524 26.632-21.203.087-.043.129-.043.216-.087 4.783 12.369 6.722 22.755 7.24 25.728-4.095 1.767-8.578 2.715-13.274 2.715zm18.918-5.818c-.345-2.068-2.154-11.98-6.593-24.176 10.645-1.681 19.952 1.077 21.116 1.465-1.465 9.437-6.896 17.583-14.523 22.711z"/></svg>