<svg xmlns="http://www.w3.org/2000/svg" viewBox="0 0 230 150"><path fill="#FFF" d="M0 0h230v150H0z"/><path d="M34.439 68.619h4.441v2.027c.664-.828 1.336-1.42 2.016-1.775s1.508-.533 2.484-.533c1.32 0 2.354.393 3.1 1.178s1.119 1.998 1.119 3.639v7.91h-4.793v-6.844c0-.781-.145-1.334-.434-1.658s-.695-.486-1.219-.486c-.578 0-1.047.219-1.406.656s-.539 1.223-.539 2.355v5.977h-4.77V68.619zm15.422 6.258c0-1.898.641-3.463 1.922-4.693s3.012-1.846 5.191-1.846c2.492 0 4.375.723 5.648 2.168 1.023 1.164 1.535 2.598 1.535 4.301 0 1.914-.635 3.482-1.904 4.705s-3.025 1.834-5.268 1.834c-2 0-3.617-.508-4.852-1.523-1.514-1.259-2.272-2.907-2.272-4.946zm4.782-.012c0 1.109.225 1.93.674 2.461s1.014.797 1.693.797c.688 0 1.252-.262 1.693-.785s.662-1.363.662-2.52c0-1.078-.223-1.881-.668-2.408s-.996-.791-1.652-.791c-.695 0-1.27.268-1.723.803s-.679 1.349-.679 2.443zm10.418-6.246h4.612l1.995 7.836 2.525-7.836h4.31l2.632 7.855 2.007-7.855h4.583L83.14 81.064h-4.244l-2.521-7.488-2.436 7.488h-4.264l-4.614-12.445zm32.074 17.18v-17.18h4.465v1.84c.617-.773 1.184-1.297 1.699-1.57a4.869 4.869 0 0 1 2.309-.551c1.664 0 2.951.637 3.861 1.91s1.365 2.848 1.365 4.723c0 2.07-.496 3.65-1.488 4.74s-2.246 1.635-3.762 1.635c-.734 0-1.404-.125-2.01-.375s-1.146-.621-1.623-1.113v5.941h-4.816zm4.781-10.922c0 .984.207 1.715.621 2.191s.938.715 1.57.715c.555 0 1.02-.229 1.395-.686s.563-1.232.563-2.326c0-1.008-.195-1.748-.586-2.221s-.867-.709-1.43-.709c-.609 0-1.117.238-1.523.715s-.61 1.251-.61 2.321zm11.25-6.258h4.465v2.039c.43-.883.873-1.49 1.33-1.822s1.021-.498 1.693-.498c.703 0 1.473.219 2.309.656l-1.477 3.398c-.563-.234-1.008-.352-1.336-.352-.625 0-1.109.258-1.453.773-.492.727-.738 2.086-.738 4.078v4.172h-4.793V68.619zm10.781-4.734h4.77v3.246h-4.77v-3.246zm0 4.734h4.77v12.445h-4.77V68.619zm7.817 0h4.441v2.027c.664-.828 1.336-1.42 2.016-1.775s1.508-.533 2.484-.533c1.32 0 2.354.393 3.1 1.178s1.119 1.998 1.119 3.639v7.91h-4.793v-6.844c0-.781-.145-1.334-.434-1.658s-.695-.486-1.219-.486c-.578 0-1.047.219-1.406.656s-.539 1.223-.539 2.355v5.977h-4.77V68.619zm21.761-4.734v4.734h2.625v3.492h-2.625v4.409c0 .53.051.881.152 1.053.156.265.43.397.82.397.352 0 .844-.102 1.477-.304l.352 3.292c-1.18.258-2.281.387-3.305.387-1.188 0-2.063-.152-2.625-.456-.563-.305-.979-.767-1.248-1.388-.27-.62-.404-1.624-.404-3.014V72.11h-1.758v-3.492h1.758v-2.285l4.781-2.448zm5.075 0h4.77v3.246h-4.77v-3.246zm0 4.734h4.77v12.445h-4.77V68.619zm7.816 0h4.441v2.027c.664-.828 1.336-1.42 2.016-1.775s1.508-.533 2.484-.533c1.32 0 2.354.393 3.1 1.178s1.119 1.998 1.119 3.639v7.91h-4.793v-6.844c0-.781-.145-1.334-.434-1.658s-.695-.486-1.219-.486c-.578 0-1.047.219-1.406.656s-.539 1.223-.539 2.355v5.977h-4.77V68.619zm24.668 0h4.465v11.754l.012.551c0 .781-.166 1.525-.498 2.232s-.773 1.279-1.324 1.717-1.25.754-2.098.949-1.818.293-2.912.293c-2.5 0-4.217-.375-5.15-1.125s-1.4-1.754-1.4-3.012c0-.156.008-.367.023-.633l4.629.527c.117.43.297.727.539.891.352.242.793.363 1.324.363.688 0 1.201-.184 1.541-.551s.51-1.008.51-1.922v-1.887c-.469.555-.938.957-1.406 1.207a4.982 4.982 0 0 1-2.379.586c-1.664 0-3.008-.727-4.031-2.18-.727-1.031-1.09-2.395-1.09-4.09 0-1.938.469-3.414 1.406-4.43s2.164-1.523 3.68-1.523c.969 0 1.768.164 2.396.492s1.217.871 1.764 1.629v-1.838zm-4.488 6.035c0 .898.191 1.564.574 1.998s.887.65 1.512.65c.594 0 1.092-.225 1.494-.674s.604-1.127.604-2.033-.211-1.6-.633-2.08-.938-.721-1.547-.721-1.096.221-1.459.662-.545 1.175-.545 2.198z"/></svg>