<svg xmlns="http://www.w3.org/2000/svg" viewBox="0 0 230 150"><path fill="#55C500" d="M0 0h230v150H0z"/><path d="M83.633 86.415c1.118 1.117 2.224 2.227 3.334 3.331.801.796 1.193 1.746 1.011 2.872-.197 1.215-.88 2.102-2.038 2.528-1.177.435-2.326.289-3.255-.592-1.263-1.198-2.464-2.459-3.69-3.694-.103-.104-.195-.219-.252-.282-1.14.511-2.201 1.054-3.309 1.469-2.691 1.007-5.49 1.39-8.357 1.247-4.807-.24-8.993-2.005-12.573-5.201-3.025-2.701-5.043-6.037-5.895-9.997-1.176-5.475-.192-10.579 3.09-15.142 3.336-4.639 7.929-7.358 13.559-8.116 6.813-.918 12.806 1.016 17.654 5.942 3.985 4.05 5.74 9.009 5.297 14.702-.31 3.979-1.824 7.474-4.318 10.565a6.224 6.224 0 0 0-.174.22c-.025.031-.041.07-.084.148zM54.951 75.273c.019 1.768.888 4.516 2.711 6.938 2.319 3.078 5.439 4.771 9.239 5.191 2.501.276 4.906-.167 7.171-1.283 3.5-1.725 5.76-4.509 6.855-8.22.891-3.02.744-6.033-.388-8.977-1.025-2.666-2.733-4.803-5.144-6.343-2.846-1.816-5.958-2.46-9.291-1.927-3.37.539-6.13 2.172-8.242 4.842-1.966 2.488-2.919 5.351-2.911 9.779zm121.112-6.709l.385-2.934h5.421v26.842h-5.418c-.122-.951-.24-1.89-.369-2.905-.149.122-.268.215-.381.313-2.775 2.409-6.014 3.516-9.674 3.424-2.663-.065-5.145-.78-7.411-2.187-2.158-1.34-3.772-3.184-4.902-5.45a14.246 14.246 0 0 1-1.455-7.795c.521-5.576 3.241-9.71 8.449-11.917 4.137-1.753 8.332-1.637 12.366.466.915.478 1.717 1.176 2.567 1.778.129.091.24.206.422.365zm-.291 10.501c0-.348.033-.699-.006-1.043-.435-3.968-3.276-6.992-7.231-7.606-2.695-.418-5.152.221-7.187 2.079-2.313 2.114-3.098 4.822-2.684 7.87.891 6.551 7.778 9.181 12.838 6.353 2.953-1.65 4.227-4.34 4.27-7.653zm-29.251 8.552v5.595c-.041.024-.064.048-.087.048-2.221-.042-4.447-.004-6.661-.153-1.717-.115-3.364-.624-4.807-1.635-1.683-1.18-2.706-2.821-3.301-4.754-.521-1.694-.622-3.444-.625-5.203-.007-3.708-.002-7.417-.002-11.127v-.537h-4.234V63.94h4.22v-8.248h6.335v8.23h9.227v5.917h-9.184c-.023.116-.051.191-.051.267.002 4.125-.019 8.25.024 12.374.013 1.313.336 2.57 1.212 3.623.818.984 1.913 1.412 3.14 1.469 1.444.064 2.891.035 4.338.047l.456-.002zM97.456 69.514h6.153v23.005h-6.153V69.514zm15.44-.001h6.156v23.004h-6.156V69.513zm3.125-12.022c2.134.028 3.843 1.773 3.813 3.895a3.847 3.847 0 0 1-3.915 3.79c-2.133-.029-3.81-1.761-3.788-3.912.021-2.097 1.777-3.801 3.89-3.773zm-15.503 0a3.851 3.851 0 0 1 3.876 3.833 3.848 3.848 0 0 1-3.815 3.853 3.83 3.83 0 0 1-3.885-3.812 3.83 3.83 0 0 1 3.824-3.874z" fill="#FFF" fill-rule="evenodd" clip-rule="evenodd"/></svg>