<svg xmlns="http://www.w3.org/2000/svg" viewBox="0 0 230 150"><defs/><path fill="#55C500" d="M0 0h230v150H0z"/><path fill="#FFF" d="M92.52 73.688c0-10.497-8.048-21.344-21.694-21.344-10.497 0-21.344 8.047-21.344 21.694 0 10.498 8.048 21.343 21.694 21.343 4.374 0 8.747-1.398 12.421-4.023l6.299 6.299 2.799-2.801-5.948-5.947c3.673-4.024 5.773-9.272 5.773-15.221zM70.825 56.193c9.973 0 17.846 7.697 17.846 17.67 0 8.573-6.648 17.668-17.67 17.668-11.022 0-17.67-8.92-17.67-17.494 0-11.196 8.922-17.844 17.494-17.844zm32.016 8.572h3.675v29.741h-3.675V64.765zm1.75-4.023c-1.75 0-3.149-1.4-3.149-3.149a3.135 3.135 0 013.149-3.149 3.136 3.136 0 013.149 3.149c0 1.748-1.4 3.149-3.149 3.149zm14.87 0a3.136 3.136 0 01-3.148-3.149 3.135 3.135 0 013.148-3.149 3.135 3.135 0 013.149 3.149 3.136 3.136 0 01-3.149 3.149zm-1.749 4.023h3.674v29.741h-3.674V64.765zm25.718 30.266c-6.824 0-10.848-5.248-10.848-10.496V56.542h3.674v8.223h12.945v3.674h-12.945v16.27c0 3.324 2.625 6.822 7.174 6.822 1.223 0 2.447-.35 3.498-1.049l.35-.176 1.75 3.15-.35.174c-1.574.876-3.5 1.401-5.248 1.401zm24.316.176c-9.971 0-15.92-7.873-15.92-15.57 0-9.973 7.873-15.921 15.57-15.921 4.023 0 7.174 1.399 9.447 4.024v-2.975h3.674v29.741h-3.674v-3.324c-2.099 2.625-5.247 4.025-9.097 4.025zm-.35-27.818c-5.947 0-11.896 4.549-11.896 12.248 0 5.947 4.549 11.895 12.246 11.895 3.5 0 6.998-1.574 9.273-4.373V71.763c-2.449-2.8-5.773-4.374-9.623-4.374z"/></svg>