<svg viewBox="0 0 12371 11272" xmlns="http://www.w3.org/2000/svg" fill-rule="evenodd" clip-rule="evenodd" stroke-miterlimit="10"><path d="M4494.63 7924.99l-199.102 1691.66 541.034 1231.67 983.802 316.024 2393.52-89.983 1163.77-991.001 317.936-980.246-365.928-614.235-1217.76-773.846-3617.28 209.959z" fill="#e1916f" fill-rule="nonzero"/><path d="M7998.82 8516.74s-496 1278.6-720 1681.41c-224 402.806-680 1002.81-1032 986.807-352-16-2112-394.652-2112-394.652l544-2221.35 3320-52.215z" fill="#c7806d" fill-rule="nonzero"/><path d="M8326.92 7864.26c112.056 14.395 193.704 27.506 210.629 36.737 65.986 35.992 425.916 216.975 551.891 333.442 125.975 116.467 569.885 422.408 617.876 476.396 47.991 53.988 329.934 316.646 437.912 392.276 107.978 75.63 713.856 483.547 803.839 579.528 89.983 95.981 749.85 612.879 791.842 732.854 41.992 119.975 629.875 858.466 629.875 858.466h-10293.9s191.961-678.499 227.954-858.463c35.993-179.964 71.985-282.444 185.963-636.373 113.978-353.929 149.971-570.136 281.944-750.1 131.973-179.964 155.968-336.059 323.935-456.034 167.967-119.975 833.833-452.184 833.833-452.184l1315.35 1536.19c32 150 68 379.984 148 561.984 80 182 224 419.992 260 473.992s90 171.996 122 197.996 286 77.996 286 77.996 376 60 438 70 314 26 346 18 360-184 440-232 702-512 702-512 542-516 578-556 576-718 576-718l214-316s-322-280-390-316-244-128-290-174-268-318-268-318" fill="#fff" fill-rule="nonzero" stroke="#000333" stroke-width="50"/><path d="M6499.84 11039c-62-10-438.019-70-438.019-70s-254-51.996-286-77.996c-32-26-86-143.996-122-197.996s-180-291.992-260-473.992-116-411.984-148-561.984l-1315.35-1536.18s-665.866 332.208-833.833 452.184c-167.967 119.976-191.961 276.07-323.935 456.034s-167.967 396.171-281.944 750.1c-113.977 353.929-149.97 456.409-185.963 636.373-35.993 179.964-227.954 858.463-227.954 858.463h4313.98l109.019-235.001z" fill="#b2b2b2" fill-rule="nonzero"/><path d="M8326.92 7864.26c112.056 14.395 193.704 27.506 210.629 36.737 65.986 35.992 425.916 216.975 551.891 333.442 125.975 116.467 569.885 422.408 617.876 476.396 47.991 53.988 329.934 316.646 437.912 392.276 107.978 75.63 713.856 483.547 803.839 579.528 89.983 95.981 749.85 612.879 791.842 732.854 41.992 119.975 629.875 858.466 629.875 858.466h-10293.9s191.961-678.499 227.954-858.463c35.993-179.964 71.985-282.444 185.963-636.373 113.978-353.929 149.971-570.136 281.944-750.1 131.973-179.964 155.968-336.059 323.935-456.034 167.967-119.975 833.833-452.184 833.833-452.184l1315.35 1536.19c32 150 68 379.984 148 561.984 80 182 224 419.992 260 473.992s90 171.996 122 197.996 286 77.996 286 77.996 376 60 438 70 314 26 346 18 360-184 440-232 702-512 702-512 542-516 578-556 576-718 576-718l214-316s-322-280-390-316-244-128-290-174-268-318-268-318" fill="none" stroke="#000333" stroke-width="50"/><g fill="#000333" fill-rule="nonzero"><path d="M9409.4 11274s81.008-306.461 90.009-459.477c9.001-153.016 54.004-426.168 45.004-498.175s-40.819 278.965-66.914 383.976c-26.095 105.011-23.094 234.243-38.096 306.25-15.002 72.007-84.009 267.426-84.009 267.426h54.006zm-685.829-3004.34s172.774 144.381 238.781 192.386c66.007 48.005 105.011 72.008 162.017 123.013 57.006 51.005 108.011 102.011 129.013 114.012 21.002 12.001 74.727 64.847 74.727 64.847l27.707-40.913s-126.437-173.949-198.443-221.954c-72.006-48.005-273.026-159.015-300.029-171.017-27.003-12.002-116.527-60.373-116.527-60.373m656.388 451.81s-19.5 40.497-12 52.497 31.498 21 40.498 74.997c9 53.997 20.999 118.494 20.999 173.991 0 55.497-7.5 79.495-25.499 160.491-17.999 80.996-62.996 184.492-83.995 212.99-20.999 28.498-299.986 383.977-347.983 433.475-47.997 49.498-251.987 250.488-251.987 250.488s280.486-250.488 319.484-305.985c38.998-55.497 145.494-190.489 205.49-266.985 59.996-76.496 130.493-176.991 145.492-223.488 14.999-46.497 67.496-154.491 71.996-232.487 4.5-77.996-10.499-233.988-31.498-257.987-20.999-23.999-50.997-71.997-50.997-71.997zm-3677.81 2126.89c-20.999-25.498-104.995-131.993-154.492-175.491-49.497-43.498-94.496-115.495-160.492-160.492-65.996-44.997-149.992-158.99-202.489-226.487-52.497-67.497-173.991-271.486-178.491-323.983-4.5-52.497-76.496-269.985-76.496-269.985s-4.5 50.997 0 127.493 50.998 290.985 85.496 347.982c34.498 56.997 182.991 254.987 203.99 296.985 20.999 41.998 106.495 107.994 137.993 139.493 31.498 31.499 188.991 164.991 220.489 175.491 31.498 10.5 124.492 68.994 124.492 68.994z"/><path d="M5573.9 10896.3c-67.497-37.498-175.492-100.495-224.989-155.992-49.497-55.497-143.992-191.99-187.49-232.488-43.498-40.498-136.494-203.989-170.992-266.986-34.498-62.997-71.996-157.492-71.996-157.492s140.993 394.48 205.49 464.977c64.497 70.497 200.99 256.486 253.487 286.485 52.497 29.999 139.492 70.497 181.49 85.496 41.998 14.999 146.993 76.496 146.993 76.496s-73.495-53.996-88.495-70.496c-15-16.5-43.498-30-43.498-30zm6004.91 377.644s-128-177-184-245-204-232-280-316-104-168-240-292-248-253.207-356-340.604c-108-87.397-200-243.396-240-271.396-40-28-124-88-192-136s-40-56-120-132-144-148-196-228 72 136 140 208 168 192 200 212 108 36 144 88 156 216 172 228 144 114.387 176 149.193c32 34.806 124 142.807 144 158.807s124 92 144 124 188 264 212 280 160 204 176 228 168 216 184 232 56 51 56 51l60 2z"/></g><path d="M8585.53 7253.13s143.971 71.986 233.953 0 149.969-77.985 173.965-149.971c23.996-71.986 53.99-125.974 35.994-191.961-17.996-65.987-59.988-59.989-89.982-125.976s-23.996-71.985 17.996-203.959 23.996-329.934 29.994-389.922c5.998-59.988-17.996-539.892-17.996-539.892l-407.919 500.321 23.995 1101.36zm-5009.36-533.679s-65.622 83.77-83.618 149.757c-17.996 65.987-17.996 179.965 0 203.96 17.996 23.995 203.959 125.975 203.959 125.975l-120.341-479.692" fill="#e1916f" fill-rule="nonzero" stroke="#333" stroke-width="50"/><path d="M8735.55 7163.14l143.973-1689.87-785.136-2359.32-4079.97-245.951-575.895 923.815 40.493 2561.49s169.468 789.844 217.459 931.814c47.992 141.971 131.977 501.898 167.97 657.867 35.993 155.969 65.988 287.941 173.968 515.896 107.98 227.955 485.91 653.869 659.878 875.825 173.968 221.956 472.787 515.896 602.326 623.875 129.539 107.979 261.514 167.968 441.481 203.96 179.967 35.992 647.432 41.992 683.649 29.994 36.219-11.998 222.184-23.996 468.139-197.961s701.871-490.257 773.858-623.053c71.987-132.796 335.938-480.727 473.913-714.68 137.975-233.953 383.93-695.861 419.923-839.832 35.994-143.971 83.986-366.337 107.981-420.121 23.997-53.784 65.99-233.747 65.99-233.747h0z" fill="#e1916f" fill-rule="nonzero" stroke="#333" stroke-width="50"/><path d="M2988.65 4451.69s-215.956 251.949-305.938 431.913 141.296-248.768 259.61-295.35c118.314-46.582-87.954 157.377-116.794 307.348-28.84 149.97-76.83 455.908-76.83 455.908s143.972-377.924 239.952-479.903c95.98-101.98-72.195 713.857-84.088 779.844-11.893 65.987 174.067-209.958 192.065-467.906 17.999-257.95-107.977-731.854-107.977-731.854z" fill="#333" fill-rule="nonzero"/><g fill="#c7806d" fill-rule="nonzero"><path d="M3572.71 6151.77s10.108 151.009 82.108 304.101 64 205.588 112 383.34c48 177.752 120 289.752 200 369.752s112 120 168 288 133.428 168 178.714 320 181.286 144 229.286 216 328 48 360 112-48 280 0 408 277.8 184 277.8 184 28.198 88 83.199 168 223.001 304 279.001 336c56 32 344 56 368 128s152 56 216 136 168-16 112 152-160 80-160 208 144 184 224 192 344 72 344 72-80 48-272 72-576 72-712 0-396.399-288-482.2-360c-85.801-72-637.8-656-765.8-816s-424-608-464-744-176-672-240-912-140.217-432-138.108-496c2.109-64 0-721.193 0-721.193"/><path d="M5287.82 7964.96s-8 92.834 0 230.417 2 233.583 79 253.583 145-8 181 48 144 244 180 232 192-128 240-128 60 16 84-16 16-64 36-132 44-79.451 92-105.726c48-26.275 100-50.274 140-74.274s168-28 188-56 76-176 76-176l-158.074 15.997-109.926-3.997-137.45 74.498-62.997 43.497-103.495 44.998-100.132 18.302-191.918-38.878-239.177-159.422-192.831-70.995z"/></g><path d="M6629.82 6302.96s12-70 36-104 156-118 240-146 190-62 290-60 184-4 234 22 106 76 106 76 0 2-20 8-2-6.386-58 52.808c-56 59.192-146.543 131.192-223.271 139.192-76.728 8-194.729 26-252.729 12s-210-36-232-31-108 7-120 31z" fill="none"/><path d="M6629.82 6302.96s12-70 36-104 156-118 240-146 190-62 290-60 184-4 234 22 106 76 106 76 0 2-20 8-2-6.386-58 52.808c-56 59.192-146.543 131.192-223.271 139.192-76.728 8-194.729 26-252.729 12s-210-36-232-31-108 7-120 31z" fill="#eee" fill-rule="nonzero"/><clipPath id="a"><path d="M6629.82 6302.96s12-70 36-104 156-118 240-146 190-62 290-60 184-4 234 22 106 76 106 76 0 2-20 8-2-6.386-58 52.808c-56 59.192-146.543 131.192-223.271 139.192-76.728 8-194.729 26-252.729 12s-210-36-232-31-108 7-120 31z"/></clipPath><g clip-path="url(#a)"><circle cx="7082.82" cy="6094.96" r="191" fill="#463b35"/><circle cx="7082.82" cy="6140.96" r="46" fill="#eee"/></g><path d="M4454.54 6097.76c30.003 27.003 42.004 24.002 48.005 36.003 6.001 12.001 87.009 69.007 147.015 117.012 60.006 48.005 165.017 45.005 252.025 48.005 87.008 3 240.024-18.002 300.03-26.822 60.006-8.82 99.01 47.824 99.01 47.824l-36.813-99.01s-62.196-63.006-86.199-84.008c-24.003-21.002-117.012-69.007-186.019-84.489-69.007-15.481-114.011-29.522-174.018-38.523-60.007-9.001-165.016-24.002-300.03 0-37.284 6.628-64.958 12.57-87.13 18.773-58.118 16.26-78.427 34.315-134.893 71.235l159.017-6z" fill="#eee" fill-rule="nonzero"/><clipPath id="b"><path d="M4454.54 6097.76c30.003 27.003 42.004 24.002 48.005 36.003 6.001 12.001 87.009 69.007 147.015 117.012 60.006 48.005 165.017 45.005 252.025 48.005 87.008 3 240.024-18.002 300.03-26.822 60.006-8.82 99.01 47.824 99.01 47.824l-36.813-99.01s-62.196-63.006-86.199-84.008c-24.003-21.002-117.012-69.007-186.019-84.489-69.007-15.481-114.011-29.522-174.018-38.523-60.007-9.001-165.016-24.002-300.03 0-37.284 6.628-64.958 12.57-87.13 18.773-58.118 16.26-78.427 34.315-134.893 71.235l159.017-6z"/></clipPath><g clip-path="url(#b)"><circle cx="4937.59" cy="6088.76" r="189.019" fill="#463b35"/><circle cx="4937.59" cy="6109.76" r="42.004" fill="#eee"/></g><path d="M5468.65 7549.91s-39.004-72.007-60.006-57.006c-21.002 15.001-29.642 81.008-41.823 93.009-12.182 12.001-57.186 60.005-60.187 90.009-3.001 30.004-15.002 78.008-21.002 93.01-6 15.002-18.002-126.013 15.001-222.022 33.003-96.009 24.002-129.013 54.005-156.016 30.003-27.003 57.006-75.008 69.007-27.003 11.93 47.72 44.614 184.383 45.005 186.019z" fill="#c7806d"/><path d="M5480.65 8035.95s12-9.001 57.005 0 105.011 51.004 132.014 72.007c27.003 21.003 54.005 60.007 72.007 72.008 18.002 12.001 69.009 36.003 99.011 33.003 30.002-3 129.013-2.487 141.014.257 12.001 2.744 150.015-48.261 168.017-72.264 18.002-24.003 84.008-60.006 111.011-78.008 27.003-18.002 63.008-66.008 99.011-54.006 36.003 12.002 66.007 48.005 66.007 48.005s-60.006 15.002-84.009 18.002c-24.003 3-66.007 12.002-75.008 15.002-9.001 3-48.005 15.001-66.007 33.003-18.002 18.002-102.01 72.007-102.01 72.007s-90.009 30.003-99.01 36.004c-9.001 6.001-147.016 3-171.018 0-24.002-3-45.004-12.001-63.006-12.001-18.002 0-75.008-45.005-75.008-45.005s-48.005-39.004-57.006-39.004c-9.001 0-48.006-13.44-57.006-14.221-9-.781-45.005-.781-51.005-15.782s-45.004-57.006-45.004-57.006v-12.001z" fill="#333"/><path d="M6488.75 7396.89s93.01 141.014 117.012 207.021c24.002 66.007 51.005 166.124 51.005 166.124s30.003-173.465-12.001-213.299-156.016-159.846-156.016-159.846z" fill="#c7806d"/><path d="M6374.74 5608.71c69.007-57.005 57.006-63.007 171.018-126.013 114.012-63.006 213.021-132.013 363.036-183.018 150.015-51.005 366.036-90.009 462.046-90.009 96.01 0 240.024 12 318.032 33.003 78.008 21.002 171.017 48.005 225.022 87.009 54.005 39.004 153.016 111.012 168.017 129.013 15.001 18.002 39.003 0-84.009 18.002s-210.021 36.004-309.03 30.003c-99.009-6.001-102.011-6.001-309.031 9.001-207.021 15.001-210.021 12.001-375.037 57.006-165.017 45.004-213.021 69.006-351.035 90.009-138.014 21.002-192.02 45.004-231.023 24.002-39.003-21.002-48.006-78.008-48.006-78.008zm-2421.24-81.008s-57.005-9.001 99.01-126.013c156.015-117.012 279.028-141.015 417.042-135.014 138.014 6.001 318.032 45.005 426.043 84.009 108.011 39.004 274.407 33.003 368.227 132.013 93.819 99.011 109.747 198.021 109.747 198.021s-222.949-123.013-321.958-117.012c-99.01 6-240.024-18.003-318.032-3.001-78.008 15.002-198.02 45.005-297.03 48.005-99.01 3.001-231.022-18.001-321.032-12.001-90.009 6.001-155.338 15.002-172.179 24.003-16.841 9.001 10.162-93.01 10.162-93.01z" fill="#333" fill-rule="nonzero"/><g fill-rule="nonzero"><path d="M5321.63 8899.48s21.003 84.568 111.012 168.577 183.019 168.018 255.025 210.021c72.006 42.003 126.012 99.009 237.023 93.009s126.012 3 315.031-69.007 231.022-93.132 294.029-166.578c63.007-73.446 87.01-142.453 102.011-181.457 15.001-39.004 15.146-119.347 15.146-119.347l-639.208 92.345-690.069-27.563z" fill="#b55568"/><path d="M5105.61 8870.03c48.005-6.001 108.717-3.001 172.871 12.001 64.154 15.002 304.178 36.004 340.181 36.004 36.003 0 123.012 6 171.017 24.002 48.005 18.002 108.012 57.006 180.019 48.005 72.007-9.001 126.012-27.002 201.02-36.003 75.008-9.001 96.011-16.57 180.019-24.787 84.008-8.217 177.019-56.016 213.021-62.119 36.002-6.103 258.025-24.104 279.027-30.105 21.002-6.001-169.636 3-264.836-6.001-95.2-9.001-179.209-9.001-221.213-18.002-42.004-9.001-126.013 15.001-168.017 21.002-42.004 6.001-117.013 24.003-144.015 42.005-27.002 18.002 6.001 20.333-42.004 25.168-48.005 4.835-54.006-19.168-126.013-52.171s-69.007-48.999-159.016-38.001c-90.009 10.998-204.021 19.998-249.025 32-45.004 12.002-175.637 0-204.83 0-29.193 0-158.206 27.002-158.206 27.002z" fill="#913453"/></g><g fill="#333" fill-rule="nonzero"><path d="M4182.59 3377.69s1343.64 90.088 1589.59 198.066c245.95 107.979 893.774 144.024 1097.74 264 203.959 119.976 1001.78 467.932 1001.78 467.932s-155.981-503.886-305.95-617.863c-149.971-113.977 528.609 287.949 528.609 287.949s173.239 209.962 221.231 359.931c47.992 149.969 95.979 557.889 107.978 587.883 11.999 29.994 119.976 262.227 143.971 284.084 23.995 21.856 35.992 81.846 89.982 201.821 53.988 119.976 59.986 245.95 59.986 359.928 0 113.978 41.993 388.841 47.991 506.358 5.998 117.517 0 561.428 0 561.428l131.973-519.424s-6.321-212.429-.321-278.416c5.998-65.987 59.666-263.947 59.666-263.947v197.539l120.12-251.528s42.242 200.793.25 277.361c-41.992 76.568 216.084-37.408 204.085-367.343-11.999-329.935 204.021-641.872 138.034-875.825-65.987-233.953-47.959-905.819-77.953-1115.78-29.994-209.958-161.952-1013.8-371.91-1181.76-209.958-167.967-323.927-539.893-599.872-713.858-275.945-173.965-611.873-257.949-791.838-341.932-179.965-83.983-335.931-143.971-947.809-173.965-611.878-29.994-557.887-65.987-1121.77 0-563.889 65.987-923.816 89.982-1091.78 167.967-167.967 77.984-677.864 443.911-803.839 707.858-125.975 263.947-437.912 743.851-527.895 1067.79-89.983 323.935-101.979 947.811-107.979 1115.78-6 167.966-95.981 623.876-65.987 737.853 29.994 113.977 17.996 357.466 59.988 424.684 41.992 67.218 149.971 301.171 179.964 349.161 29.993 47.99 23.995 136.767 47.99 266.344s53.99 339.534 149.97 429.517c95.98 89.983 227.954 251.95 227.954 251.95s-17.997-1357.45 23.995-1539.55c41.992-182.103 143.972-224.095 149.97-290.081 5.999-65.987-83.983-113.979-29.994-335.934 53.989-221.955 47.99-521.895 125.975-701.859 77.985-179.964 336.114-504.109 336.114-504.109z"/><path d="M8627.53 5183.54s53.99 281.943 0 443.911c-53.99 161.968-167.967 524.316-167.967 524.316s127.648-175.375 191.963-320.357c64.315-144.982 83.982-533.894 83.982-533.894L8627.53 5183.54z"/></g><path d="M4313.53 6308.13s72.007 56.672 195.02 92.676c123.013 36.004 267.027 54.007 351.035 42.005 84.008-12.002 321.032-65.489 321.032-65.489s-351.035 149.496-483.048 161.498c-132.013 12.002-255.025-27.062-300.03-70.536-45.005-43.474-84.009-160.154-84.009-160.154zm2412.24 53.675s216.022 95.945 294.03 106.479c78.008 10.534 309.03 16.47 339.033 0 30.003-16.47 234.023-76.476 234.023-76.476s-75.008 108.012-204.021 135.014c-129.013 27.002-204.02 28.393-279.027 14.196-75.007-14.197-267.026-41.263-300.03-72.734-33.004-31.471-84.008-106.479-84.008-106.479z" fill="#c7806d" fill-rule="nonzero"/></svg>