<svg xmlns="http://www.w3.org/2000/svg" viewBox="0 0 200 200"><g fill="#333"><path d="M100 38.914c-33.737 0-61.086 27.349-61.086 61.086 0 33.736 27.349 61.086 61.086 61.086 33.736 0 61.086-27.35 61.086-61.086 0-33.737-27.35-61.086-61.086-61.086zm0 104.899c-24.197 0-43.813-19.615-43.813-43.813 0-24.197 19.616-43.813 43.813-43.813 24.197 0 43.813 19.616 43.813 43.813 0 24.197-19.616 43.813-43.813 43.813z"/><path d="M100 0C44.771 0 0 44.771 0 100s44.771 100 100 100 100-44.771 100-100S155.229 0 100 0zm0 180c-44.183 0-80-35.817-80-80s35.817-80 80-80 80 35.817 80 80-35.817 80-80 80z"/></g></svg>